<svg xmlns="http://www.w3.org/2000/svg" width="60" height="60" viewBox="0 0 60 60">
  <g id="Facebook" transform="translate(0.23 0.402)">
    <path id="Exclusión_2" data-name="Exclusión 2" d="M-3700.229-916.4a29.814,29.814,0,0,1-11.677-2.357,29.9,29.9,0,0,1-9.536-6.429,29.9,29.9,0,0,1-6.429-9.536,29.809,29.809,0,0,1-2.358-11.677,29.811,29.811,0,0,1,2.358-11.678,29.9,29.9,0,0,1,6.429-9.536,29.9,29.9,0,0,1,9.536-6.429,29.814,29.814,0,0,1,11.677-2.357,29.812,29.812,0,0,1,11.677,2.357,29.9,29.9,0,0,1,9.536,6.429,29.9,29.9,0,0,1,6.429,9.536,29.811,29.811,0,0,1,2.358,11.678,29.809,29.809,0,0,1-2.358,11.677,29.9,29.9,0,0,1-6.429,9.536,29.9,29.9,0,0,1-9.536,6.429A29.812,29.812,0,0,1-3700.229-916.4Zm-12.324-46.379a3.872,3.872,0,0,0-3.867,3.868v24.756a3.872,3.872,0,0,0,3.867,3.868h24.757a3.873,3.873,0,0,0,3.868-3.868v-24.756a3.873,3.873,0,0,0-3.868-3.868Zm17.795,30.945h-3.868v-11.6h-3.095v-3.868h3.095v-2.322a6.122,6.122,0,0,1,1.16-3.868,4.276,4.276,0,0,1,3.481-1.547,4.86,4.86,0,0,1,3.095.773v3.095h-1.547c-1.692,0-2.321.419-2.321,1.547v2.322h3.868l-.774,3.868h-3.094v11.6Z" transform="translate(3730 976)" fill="#fff"/>
  </g>
</svg>
