<svg xmlns="http://www.w3.org/2000/svg" width="43.071" height="43.071" viewBox="0 0 43.071 43.071">
  <path id="instagram" d="M19.56,7A12.578,12.578,0,0,0,7,19.565V37.51A12.579,12.579,0,0,0,19.565,50.071H37.51A12.579,12.579,0,0,0,50.071,37.507V19.56A12.578,12.578,0,0,0,37.507,7Zm21.9,6.891a1.723,1.723,0,1,1-1.723,1.723A1.723,1.723,0,0,1,41.457,13.891ZM28.536,17.337a11.2,11.2,0,1,1-11.2,11.2A11.209,11.209,0,0,1,28.536,17.337Zm0,3.446a7.753,7.753,0,1,0,7.753,7.753A7.752,7.752,0,0,0,28.536,20.783Z" transform="translate(-7 -7)" fill="#fff"/>
</svg>
