<svg xmlns="http://www.w3.org/2000/svg" width="46.58" height="29.944" viewBox="0 0 46.58 29.944">
  <path id="Mail" d="M36.018,53.184H75.943a2.825,2.825,0,0,1,.848.117L60.438,69.638a6.324,6.324,0,0,1-8.932,0L35.17,53.3A2.825,2.825,0,0,1,36.018,53.184Zm-3.21,2.479L45.317,68.156,32.808,80.649a2.825,2.825,0,0,1-.117-.848V56.511A2.825,2.825,0,0,1,32.808,55.663Zm46.346,0a2.825,2.825,0,0,1,.117.848V79.8a2.825,2.825,0,0,1-.117.848L66.628,68.156ZM47.663,70.5,49.144,72a9.68,9.68,0,0,0,13.64,0l1.5-1.5L76.791,83.011a2.825,2.825,0,0,1-.848.117H36.018a2.825,2.825,0,0,1-.848-.117Z" transform="translate(-32.691 -53.184)" fill="#fff"/>
</svg>
