<svg xmlns="http://www.w3.org/2000/svg" width="21.117" height="21.282" viewBox="0 0 21.117 21.282">
  <g id="Contacte-nos" transform="translate(-174.218 -262.282)">
    <path id="Trazado_51" data-name="Trazado 51" d="M180.17,270.463l.637-.482c1.582-1.2,1.788-2.371.684-3.98-.607-.885-1.206-1.777-1.856-2.629a2.389,2.389,0,0,0-3.371-.671,3.566,3.566,0,0,0-2.025,2.916,13.15,13.15,0,0,0,.4,4.323,20.111,20.111,0,0,0,6.875,9.53,16.08,16.08,0,0,0,8.6,4.06,4.621,4.621,0,0,0,4.912-2.4,2.3,2.3,0,0,0-.687-3.078c-1.011-.77-2.055-1.5-3.124-2.187a2.368,2.368,0,0,0-3.291.564c-.25.3-.475.63-.767,1.021A28.718,28.718,0,0,1,180.17,270.463Z" transform="translate(0 0)" fill="#fff"/>
    <path id="Trazado_52" data-name="Trazado 52" d="M180.17,270.463a28.718,28.718,0,0,0,6.985,6.988c.292-.391.517-.716.767-1.021a2.368,2.368,0,0,1,3.291-.564c1.069.687,2.114,1.417,3.124,2.187a2.3,2.3,0,0,1,.687,3.078,4.621,4.621,0,0,1-4.912,2.4,16.08,16.08,0,0,1-8.6-4.06,20.111,20.111,0,0,1-6.875-9.53,13.15,13.15,0,0,1-.4-4.323,3.566,3.566,0,0,1,2.025-2.916,2.389,2.389,0,0,1,3.371.671c.651.852,1.249,1.744,1.856,2.629,1.1,1.609.9,2.78-.684,3.98Z" transform="translate(0 0)" fill="#fff"/>
  </g>
</svg>
