<svg xmlns="http://www.w3.org/2000/svg" width="60" height="60" viewBox="0 0 60 60">
  <g id="Twitter" transform="translate(0.459 0.402)">
    <path id="Exclusión_1" data-name="Exclusión 1" d="M-3782.459-916.4a29.814,29.814,0,0,1-11.678-2.358,29.9,29.9,0,0,1-9.536-6.429,29.9,29.9,0,0,1-6.429-9.536,29.816,29.816,0,0,1-2.357-11.678,29.814,29.814,0,0,1,2.357-11.677,29.9,29.9,0,0,1,6.429-9.536,29.9,29.9,0,0,1,9.536-6.429,29.814,29.814,0,0,1,11.678-2.358,29.813,29.813,0,0,1,11.677,2.358,29.9,29.9,0,0,1,9.536,6.429,29.9,29.9,0,0,1,6.429,9.536,29.814,29.814,0,0,1,2.357,11.677,29.816,29.816,0,0,1-2.357,11.678,29.9,29.9,0,0,1-6.429,9.536,29.9,29.9,0,0,1-9.536,6.429A29.812,29.812,0,0,1-3782.459-916.4Zm-19.733-17.616h0a23.233,23.233,0,0,0,12.555,3.678,23.6,23.6,0,0,0,10-2.119,22.043,22.043,0,0,0,7.3-5.474,24.032,24.032,0,0,0,4.479-7.5,23.69,23.69,0,0,0,1.522-8.208c0-.352-.008-.708-.023-1.059a16.573,16.573,0,0,0,4.089-4.24,16.37,16.37,0,0,1-4.7,1.29,8.191,8.191,0,0,0,3.6-4.531,16.406,16.406,0,0,1-5.2,1.989,8.227,8.227,0,0,0-5.978-2.588,8.2,8.2,0,0,0-8.19,8.191,8.28,8.28,0,0,0,.212,1.866,23.059,23.059,0,0,1-9.479-2.549,23.245,23.245,0,0,1-7.4-6.011,8.2,8.2,0,0,0-1.108,4.12,8.18,8.18,0,0,0,3.643,6.816,8.216,8.216,0,0,1-3.709-1.025v.1a8.207,8.207,0,0,0,6.57,8.03,8.2,8.2,0,0,1-2.158.287,8.374,8.374,0,0,1-1.541-.145,8.191,8.191,0,0,0,7.652,5.689,16.432,16.432,0,0,1-4.7,2.577,16.469,16.469,0,0,1-5.475.93A16.58,16.58,0,0,1-3802.192-934.018Z" transform="translate(3812 976)" fill="#fff"/>
  </g>
</svg>
