<svg xmlns="http://www.w3.org/2000/svg" width="52.922" height="43.006" viewBox="0 0 52.922 43.006">
  <path id="twitter" d="M54.921,9.527a21.673,21.673,0,0,1-6.236,1.71A10.876,10.876,0,0,0,53.458,5.23a21.77,21.77,0,0,1-6.9,2.636,10.86,10.86,0,0,0-18.781,7.427,10.978,10.978,0,0,0,.281,2.473A30.823,30.823,0,0,1,5.683,6.421a10.877,10.877,0,0,0,3.36,14.5,10.835,10.835,0,0,1-4.918-1.358V19.7A10.859,10.859,0,0,0,12.835,30.34a10.861,10.861,0,0,1-2.862.381,11.055,11.055,0,0,1-2.042-.193,10.871,10.871,0,0,0,10.142,7.541A21.776,21.776,0,0,1,4.59,42.718,21.816,21.816,0,0,1,2,42.565a30.738,30.738,0,0,0,16.643,4.877c19.971,0,30.889-16.544,30.889-30.891q0-.705-.031-1.4A22.093,22.093,0,0,0,54.921,9.527Z" transform="translate(-1.999 -4.436)" fill="#fff"/>
</svg>
