<svg xmlns="http://www.w3.org/2000/svg" width="43.071" height="43.071" viewBox="0 0 43.071 43.071">
  <path id="whatsapp" d="M23.536,2A21.534,21.534,0,0,0,4.774,34.107l-2.74,9.775a.937.937,0,0,0,.9,1.189.964.964,0,0,0,.225-.027l10.2-2.527A21.536,21.536,0,1,0,23.536,2ZM34.369,31.135c-.461,1.275-2.67,2.439-3.732,2.6a7.686,7.686,0,0,1-3.483-.216A32.4,32.4,0,0,1,24,32.363C18.456,30,14.834,24.484,14.557,24.12S12.3,21.16,12.3,18.474a6.09,6.09,0,0,1,1.935-4.554,2.044,2.044,0,0,1,1.475-.684c.369,0,.737,0,1.06.02.34.017.8-.128,1.244.937.461,1.094,1.566,3.78,1.7,4.054a1,1,0,0,1,.047.957,3.68,3.68,0,0,1-.552.911c-.277.319-.581.712-.83.957-.277.272-.565.567-.243,1.114a16.452,16.452,0,0,0,3.076,3.782,15.158,15.158,0,0,0,4.446,2.71c.552.273.875.228,1.2-.137s1.382-1.595,1.75-2.14.737-.456,1.244-.273,3.226,1.5,3.778,1.775.921.41,1.06.638A4.5,4.5,0,0,1,34.369,31.135Z" transform="translate(-2 -2)" fill="#fff"/>
</svg>
