<svg xmlns="http://www.w3.org/2000/svg" xmlns:xlink="http://www.w3.org/1999/xlink" width="40" height="40" viewBox="0 0 40 40">
  <defs>
    <linearGradient id="linear-gradient" x1="1.167" y1="-0.211" x2="0.04" y2="1.057" gradientUnits="objectBoundingBox">
      <stop offset="0" stop-color="#2ef8a0"/>
      <stop offset="0.509" stop-color="#01c4e7"/>
      <stop offset="1" stop-color="#f82d97"/>
    </linearGradient>
  </defs>
  <g id="Compra_bilhete" data-name="Compra bilhete" transform="translate(-342.775 -19)">
    <rect id="Rectángulo_1" data-name="Rectángulo 1" width="39.32" height="39.32" rx="19.66" transform="matrix(1, 0.017, -0.017, 1, 343.461, 19)" fill="url(#linear-gradient)"/>
    <g id="Grupo_22" data-name="Grupo 22" transform="translate(351.321 31.95)">
      <path id="Trazado_24" data-name="Trazado 24" d="M-476,194.232a1.5,1.5,0,0,1,.575-.9,1.866,1.866,0,0,1,.775-.3c.661-.045,1.326-.014,1.989-.03a.543.543,0,0,0,.327-.134,1.694,1.694,0,0,1,.988-.424l7.456-.89q3.65-.435,7.3-.866c.274-.032.547-.074.821-.094a1.468,1.468,0,0,1,1.643,1.346q.126,1,.233,2c.054.5-.028.607-.524.73a1.642,1.642,0,0,0-1.254,1.662,1.645,1.645,0,0,0,1.632,1.572c.521,0,.627.091.69.6.083.673.168,1.346.246,2.019a1.488,1.488,0,0,1-1.383,1.678c-.888.1-1.775.211-2.663.318a.552.552,0,0,0-.088.031c0,.185,0,.377,0,.569a1.482,1.482,0,0,1-1.569,1.572h-.089q-7.727,0-15.455,0a1.527,1.527,0,0,1-1.5-.846,3.81,3.81,0,0,1-.149-.394v-2.6a.572.572,0,0,1,.549-.371,1.639,1.639,0,0,0,1.475-1.313,1.634,1.634,0,0,0-1.4-1.948.677.677,0,0,1-.621-.352Zm13.631-.31c-.083-.006-.134-.014-.185-.014q-5.951,0-11.9,0a.589.589,0,0,0-.649.651c0,.522.008,1.044-.005,1.566,0,.176.056.236.218.286a2.424,2.424,0,0,1,1.823,2.145,2.394,2.394,0,0,1-1.155,2.423,7.147,7.147,0,0,1-.882.416c0,.537,0,1.1,0,1.67,0,.513.216.728.736.728h11.745c.079,0,.157-.008.268-.013,0-.312-.014-.6,0-.891a.417.417,0,0,1,.425-.379.429.429,0,0,1,.427.353,2.022,2.022,0,0,1,.024.333c0,.191,0,.383,0,.567a.475.475,0,0,0,.093.027c.887,0,1.775.009,2.662,0a.563.563,0,0,0,.586-.6c.008-.552,0-1.1.006-1.656,0-.148-.049-.2-.191-.24a2.385,2.385,0,0,1-1.2-.733,2.533,2.533,0,0,1,1.2-4.156c.15-.042.2-.1.2-.258-.01-.522,0-1.044,0-1.566a.593.593,0,0,0-.671-.673q-1.23,0-2.461,0c-.065,0-.129.009-.211.015v.281q0,2.461,0,4.923a1.713,1.713,0,0,1-.023.311.419.419,0,0,1-.445.354.421.421,0,0,1-.411-.369,1.977,1.977,0,0,1-.015-.29q0-2.461,0-4.922Zm8.156,4.882a2.581,2.581,0,0,1-1.456-.6,2.535,2.535,0,0,1,.675-4.284c.137-.056.195-.111.171-.274-.073-.5-.127-1.005-.185-1.509s-.278-.7-.769-.639c-1.836.212-3.67.433-5.506.652l-5.438.65c-.484.058-.967.118-1.451.177,3.069.035,6.134.035,9.2.035.134,0,.269,0,.4.011a1.4,1.4,0,0,1,1.3,1.209c.05.847.025,1.7.02,2.549a.4.4,0,0,1-.378.4c-.088.016-.177.029-.265.04a1.642,1.642,0,0,0-1.345,2.029,1.643,1.643,0,0,0,1.5,1.238c.367.046.495.186.5.552,0,.185,0,.37,0,.558a.656.656,0,0,0,.111.009c.873-.1,1.747-.2,2.619-.317a.578.578,0,0,0,.512-.691C-454.06,200.012-454.137,199.421-454.213,198.8Z" transform="translate(476 -190.592)" fill="#fff"/>
      <path id="Trazado_25" data-name="Trazado 25" d="M-398.224,278.84a1.962,1.962,0,0,1-.222.342c-.4.408-.823.8-1.224,1.212a.415.415,0,0,0-.1.306c.082.553.185,1.1.281,1.652a.505.505,0,0,1-.15.549.5.5,0,0,1-.584-.006c-.5-.269-1-.524-1.5-.793a.282.282,0,0,0-.305,0c-.5.269-1,.526-1.5.793a.5.5,0,0,1-.567.019.488.488,0,0,1-.168-.54c.1-.565.2-1.13.283-1.7a.356.356,0,0,0-.085-.265c-.4-.4-.806-.8-1.213-1.192a.493.493,0,0,1-.2-.551.515.515,0,0,1,.491-.32c.539-.072,1.076-.16,1.615-.231a.357.357,0,0,0,.314-.229c.233-.5.484-.99.726-1.486a.493.493,0,0,1,.45-.344.488.488,0,0,1,.453.339c.247.509.495,1.018.756,1.52a.384.384,0,0,0,.24.179c.573.1,1.149.175,1.724.26A.512.512,0,0,1-398.224,278.84Zm-3.657-1.325c-.188.381-.362.724-.529,1.071a.589.589,0,0,1-.492.364c-.386.047-.769.114-1.129.168.27.287.529.573.8.848a.575.575,0,0,1,.187.561c-.078.385-.133.775-.2,1.2.368-.193.705-.361,1.033-.546a.626.626,0,0,1,.673,0c.327.185.665.352,1.03.544a5.749,5.749,0,0,0-.142-.826.987.987,0,0,1,.4-1.206,5.822,5.822,0,0,0,.572-.575c-.4-.061-.778-.129-1.155-.17a.6.6,0,0,1-.521-.39C-401.521,278.222-401.7,277.888-401.882,277.514Z" transform="translate(409.458 -271.27)" fill="#fff"/>
      <path id="Trazado_26" data-name="Trazado 26" d="M-232.674,371.726a.426.426,0,0,1,.442-.431.431.431,0,0,1,.445.431.452.452,0,0,1-.456.452A.447.447,0,0,1-232.674,371.726Z" transform="translate(246.309 -361.169)" fill="#fff"/>
    </g>
  </g>
</svg>
