<svg xmlns="http://www.w3.org/2000/svg" width="21.297" height="31.729" viewBox="0 0 21.297 31.729">
  <path id="Logo_Enigma" data-name="Logo Enigma" d="M4283.373,321.463h-2.558a.1.1,0,0,0-.1.1v5.094a1.3,1.3,0,0,1-.322.9,1.145,1.145,0,0,1-.9.361h-4.049a1.294,1.294,0,0,1-.884-.322,1.157,1.157,0,0,1-.361-.9s0-.007,0-.01v-5.216s0-.008,0-.012a1.262,1.262,0,0,1,.322-.861,1.131,1.131,0,0,1,.89-.362,1.294,1.294,0,0,1,.9.323,1.158,1.158,0,0,1,.362.912v5.116a.1.1,0,0,0,.1.1h2.546a.1.1,0,0,0,.1-.1v-5.116a3.932,3.932,0,0,0-.4-1.852,4.155,4.155,0,0,0-.495-.743l.029-.035a3.863,3.863,0,0,0,.684-1.29,4.48,4.48,0,0,0,.211-1.3v-4.059a3.936,3.936,0,0,0-.4-1.852,3.8,3.8,0,0,0-1-1.234,3.864,3.864,0,0,0-1.29-.684,4.467,4.467,0,0,0-1.3-.211h-5.116a.1.1,0,0,0-.1.1v2.558a.1.1,0,0,0,.1.1h5.094a1.3,1.3,0,0,1,.9.323,1.145,1.145,0,0,1,.361.9v4.037a1.3,1.3,0,0,1-.323.9,1.158,1.158,0,0,1-.912.361h-5.216a1.264,1.264,0,0,1-.873-.323,1.131,1.131,0,0,1-.362-.89,1.294,1.294,0,0,1,.323-.9,1.158,1.158,0,0,1,.912-.361h5.116a.1.1,0,0,0,.1-.1v-2.547a.1.1,0,0,0-.1-.1h-5.116a3.937,3.937,0,0,0-1.852.4,3.812,3.812,0,0,0-1.234,1,3.88,3.88,0,0,0-.684,1.29,4.479,4.479,0,0,0-.211,1.3,4.544,4.544,0,0,0,.157,1.235h-.263a3.939,3.939,0,0,0-1.852.4,3.817,3.817,0,0,0-1.235,1,3.869,3.869,0,0,0-.684,1.29,4.461,4.461,0,0,0-.211,1.3v5.116a.1.1,0,0,0,.1.1h2.558a.1.1,0,0,0,.1-.1v-5.093a1.3,1.3,0,0,1,.323-.9,1.145,1.145,0,0,1,.9-.361h4.037a1.294,1.294,0,0,1,.9.323,1.154,1.154,0,0,1,.361.9v5.239a1.262,1.262,0,0,1-.322.861,1.127,1.127,0,0,1-.879.361h-.018a1.294,1.294,0,0,1-.888-.322,1.159,1.159,0,0,1-.361-.912v-5.116a.1.1,0,0,0-.1-.1h-2.547a.1.1,0,0,0-.1.1v5.116a3.943,3.943,0,0,0,.4,1.852,4.19,4.19,0,0,0,.524.778h0a3.863,3.863,0,0,0-.684,1.29,4.48,4.48,0,0,0-.211,1.3v4.059a3.942,3.942,0,0,0,.4,1.852,3.817,3.817,0,0,0,1,1.234,3.872,3.872,0,0,0,1.291.684,4.468,4.468,0,0,0,1.3.211h5.116a.1.1,0,0,0,.1-.1v-2.558a.1.1,0,0,0-.1-.1h-5.094a1.3,1.3,0,0,1-.9-.323,1.145,1.145,0,0,1-.361-.9v-4.037a1.294,1.294,0,0,1,.323-.9,1.158,1.158,0,0,1,.912-.361h5.223a1.263,1.263,0,0,1,.866.322,1.131,1.131,0,0,1,.362.89,1.3,1.3,0,0,1-.323.9,1.158,1.158,0,0,1-.912.361h-5.116a.1.1,0,0,0-.1.1v2.547a.1.1,0,0,0,.1.1h5.116a3.937,3.937,0,0,0,1.852-.4,3.817,3.817,0,0,0,1.234-1,3.879,3.879,0,0,0,.684-1.29,4.453,4.453,0,0,0,.055-2.53h.205a3.939,3.939,0,0,0,1.852-.4,3.809,3.809,0,0,0,1.234-1,3.862,3.862,0,0,0,.684-1.29,4.461,4.461,0,0,0,.211-1.3v-5.116A.1.1,0,0,0,4283.373,321.463Z" transform="translate(-4262.177 -308.206)" fill="#fff"/>
</svg>
