<svg xmlns="http://www.w3.org/2000/svg" width="21.297" height="21.629" viewBox="0 0 21.297 21.629">
  <g id="Eventos" transform="translate(234.2 -93.208)">
    <path id="Trazado_54" data-name="Trazado 54" d="M-214.762,114.837H-232.33c-.011-.008-.021-.022-.033-.024a2.253,2.253,0,0,1-1.836-2.327c.033-3,.011-6,.011-8.993,0-1.935,0-3.87,0-5.805a2.126,2.126,0,0,1,2.024-2.157c.652-.037,1.308-.013,1.963-.016h.4c0-.4.019-.768,0-1.137a1.091,1.091,0,0,1,1.383-1.141,1.022,1.022,0,0,1,.863,1c.01.42,0,.84,0,1.26h7.988v-.606c0-.2,0-.394,0-.591a1.058,1.058,0,0,1,.729-1.029,1.2,1.2,0,0,1,1.3.356,1.153,1.153,0,0,1,.224.752c0,.371,0,.742,0,1.137h.252c.626,0,1.253,0,1.879,0a2.836,2.836,0,0,1,.566.05,2.143,2.143,0,0,1,1.709,2.1q.006,7.515,0,15.031c0,.042,0,.084,0,.126a2.155,2.155,0,0,1-.731,1.472A2.523,2.523,0,0,1-214.762,114.837Zm-.577-14.1h-16.409v11.661h16.409Z" transform="translate(0 0)" fill="#fff"/>
    <path id="Trazado_55" data-name="Trazado 55" d="M-199.9,133.923a.725.725,0,0,1,.619.464c.249.5.507,1,.749,1.511a.364.364,0,0,0,.323.241c.551.066,1.1.16,1.649.239a.751.751,0,0,1,.677.492.741.741,0,0,1-.237.819c-.414.4-.822.81-1.238,1.21a.29.29,0,0,0-.1.3c.105.581.2,1.164.3,1.746a.71.71,0,0,1-.265.732.7.7,0,0,1-.794.06c-.524-.271-1.049-.542-1.569-.822a.325.325,0,0,0-.35,0c-.495.267-1,.52-1.493.785a.748.748,0,0,1-.854-.005.745.745,0,0,1-.276-.806c.1-.56.187-1.123.288-1.683a.29.29,0,0,0-.091-.3c-.411-.394-.814-.8-1.224-1.194a.757.757,0,0,1-.256-.833.772.772,0,0,1,.716-.5q.857-.115,1.71-.257a.319.319,0,0,0,.188-.161c.267-.518.522-1.043.785-1.564A.745.745,0,0,1-199.9,133.923Z" transform="translate(-23.588 -31.884)" fill="#fff"/>
  </g>
</svg>
