<svg xmlns="http://www.w3.org/2000/svg" width="43.071" height="43.071" viewBox="0 0 43.071 43.071">
  <path id="facebook" d="M41.944,4H9.128A5.129,5.129,0,0,0,4,9.128V41.944a5.129,5.129,0,0,0,5.128,5.128H41.944a5.129,5.129,0,0,0,5.128-5.128V9.128A5.129,5.129,0,0,0,41.944,4Zm-4.1,15.383H35.791c-2.195,0-3.077.513-3.077,2.051V24.51h5.128l-1.026,5.128h-4.1V45.02H27.587V29.638h-4.1V24.51h4.1V21.434c0-4.1,2.051-7.179,6.153-7.179,2.974,0,4.1,1.026,4.1,1.026Z" transform="translate(-4 -4)" fill="#fff"/>
</svg>
