<svg xmlns="http://www.w3.org/2000/svg" width="60" height="60" viewBox="0 0 60 60">
  <g id="Instagram" transform="translate(0 0.403)">
    <path id="Exclusión_3" data-name="Exclusión 3" d="M-3618-916.4a29.813,29.813,0,0,1-11.677-2.358,29.906,29.906,0,0,1-9.536-6.429,29.9,29.9,0,0,1-6.429-9.536A29.815,29.815,0,0,1-3648-946.4a29.815,29.815,0,0,1,2.357-11.677,29.9,29.9,0,0,1,6.429-9.536,29.9,29.9,0,0,1,9.536-6.429A29.813,29.813,0,0,1-3618-976.4a29.813,29.813,0,0,1,11.677,2.358,29.9,29.9,0,0,1,9.536,6.429,29.9,29.9,0,0,1,6.429,9.536A29.815,29.815,0,0,1-3588-946.4a29.815,29.815,0,0,1-2.357,11.677,29.9,29.9,0,0,1-6.429,9.536,29.9,29.9,0,0,1-9.536,6.429A29.813,29.813,0,0,1-3618-916.4Zm-6.946-46.38a9.487,9.487,0,0,0-9.475,9.478v13.538a9.488,9.488,0,0,0,9.479,9.477h13.538a9.489,9.489,0,0,0,9.477-9.479v-13.539a9.487,9.487,0,0,0-9.478-9.475Zm6.772,24.695a8.458,8.458,0,0,1-8.448-8.448,8.458,8.458,0,0,1,8.448-8.448,8.457,8.457,0,0,1,8.448,8.448A8.458,8.458,0,0,1-3618.174-938.088Zm0-14.3a5.856,5.856,0,0,0-5.849,5.848,5.856,5.856,0,0,0,5.849,5.849,5.855,5.855,0,0,0,5.848-5.849A5.855,5.855,0,0,0-3618.174-952.385Zm9.748-2.6a1.3,1.3,0,0,1-1.3-1.3,1.3,1.3,0,0,1,1.3-1.3,1.3,1.3,0,0,1,1.3,1.3A1.3,1.3,0,0,1-3608.426-954.984Z" transform="translate(3648 976)" fill="#fff"/>
  </g>
</svg>
