<svg xmlns="http://www.w3.org/2000/svg" xmlns:xlink="http://www.w3.org/1999/xlink" width="324.949" height="93.52" viewBox="0 0 324.949 93.52">
  <defs>
    <linearGradient id="linear-gradient" x1="0.114" y1="0.953" x2="0.846" y2="0.152" gradientUnits="objectBoundingBox">
      <stop offset="0" stop-color="#2ef8a0"/>
      <stop offset="0.5" stop-color="#01c4e7"/>
      <stop offset="0.948" stop-color="#f82d97"/>
      <stop offset="1" stop-color="#f82d97"/>
    </linearGradient>
  </defs>
  <g id="Logo" transform="translate(-52 -42.034)">
    <path id="Trazado_5" data-name="Trazado 5" d="M4324.653,347.279h-7.539a.3.3,0,0,0-.3.3v15.013a3.82,3.82,0,0,1-.95,2.639,3.377,3.377,0,0,1-2.656,1.065H4301.28a3.81,3.81,0,0,1-2.6-.949,3.4,3.4,0,0,1-1.064-2.657c0-.01,0-.02,0-.03V347.279c0-.012,0-.024,0-.036a3.723,3.723,0,0,1,.949-2.537,3.334,3.334,0,0,1,2.623-1.066,3.818,3.818,0,0,1,2.639.951,3.414,3.414,0,0,1,1.065,2.688v15.079a.3.3,0,0,0,.3.3h7.506a.3.3,0,0,0,.3-.3V347.279a11.608,11.608,0,0,0-1.18-5.458,12.325,12.325,0,0,0-1.459-2.191c.028-.035.059-.068.087-.1a11.4,11.4,0,0,0,2.016-3.8,13.168,13.168,0,0,0,.623-3.819V319.941a11.614,11.614,0,0,0-1.18-5.458,11.228,11.228,0,0,0-2.934-3.638,11.4,11.4,0,0,0-3.8-2.016,13.166,13.166,0,0,0-3.818-.623h-15.079a.3.3,0,0,0-.295.3v7.539a.3.3,0,0,0,.295.3h15.013a3.82,3.82,0,0,1,2.64.951,3.377,3.377,0,0,1,1.065,2.655v11.9a3.819,3.819,0,0,1-.951,2.638,3.415,3.415,0,0,1-2.687,1.065h-15.374a3.729,3.729,0,0,1-2.573-.951,3.333,3.333,0,0,1-1.066-2.622,3.819,3.819,0,0,1,.951-2.639,3.414,3.414,0,0,1,2.688-1.065h15.079a.3.3,0,0,0,.3-.3v-7.506a.3.3,0,0,0-.3-.3h-15.079a11.609,11.609,0,0,0-5.458,1.18,11.247,11.247,0,0,0-3.638,2.934,11.419,11.419,0,0,0-2.016,3.8,13.182,13.182,0,0,0-.623,3.819,13.351,13.351,0,0,0,.461,3.639h-.776a11.611,11.611,0,0,0-5.458,1.18,11.233,11.233,0,0,0-3.639,2.934,11.391,11.391,0,0,0-2.016,3.8,13.177,13.177,0,0,0-.623,3.818v15.079a.3.3,0,0,0,.3.3h7.539a.3.3,0,0,0,.3-.3V347.345a3.818,3.818,0,0,1,.951-2.639,3.376,3.376,0,0,1,2.655-1.065h11.9a3.818,3.818,0,0,1,2.639.951,3.4,3.4,0,0,1,1.064,2.657c0,.01,0,.02,0,.03v15.374c0,.012,0,.024,0,.036a3.723,3.723,0,0,1-.949,2.537,3.323,3.323,0,0,1-2.59,1.064h-.054a3.811,3.811,0,0,1-2.617-.95,3.413,3.413,0,0,1-1.065-2.688V347.575a.3.3,0,0,0-.3-.3h-7.506a.3.3,0,0,0-.3.3v15.079a11.613,11.613,0,0,0,1.18,5.458,12.267,12.267,0,0,0,1.544,2.292h0a11.4,11.4,0,0,0-2.016,3.8,13.183,13.183,0,0,0-.623,3.819v11.965a11.608,11.608,0,0,0,1.18,5.458,11.232,11.232,0,0,0,2.933,3.638,11.4,11.4,0,0,0,3.8,2.016,13.163,13.163,0,0,0,3.818.623h15.079a.3.3,0,0,0,.3-.3v-7.539a.3.3,0,0,0-.3-.3h-15.013a3.819,3.819,0,0,1-2.64-.951,3.375,3.375,0,0,1-1.065-2.655v-11.9a3.819,3.819,0,0,1,.951-2.639,3.414,3.414,0,0,1,2.688-1.065h15.395a3.723,3.723,0,0,1,2.552.95,3.334,3.334,0,0,1,1.066,2.622,3.819,3.819,0,0,1-.951,2.639,3.415,3.415,0,0,1-2.687,1.065h-15.079a.3.3,0,0,0-.295.3v7.506a.3.3,0,0,0,.295.3h15.079a11.609,11.609,0,0,0,5.458-1.18,11.258,11.258,0,0,0,3.638-2.934,11.418,11.418,0,0,0,2.016-3.8,13.166,13.166,0,0,0,.623-3.819,13.381,13.381,0,0,0-.461-3.638h.6a11.615,11.615,0,0,0,5.458-1.18,11.233,11.233,0,0,0,3.638-2.934,11.4,11.4,0,0,0,2.016-3.8,13.176,13.176,0,0,0,.623-3.819V347.575A.3.3,0,0,0,4324.653,347.279Z" transform="translate(-4210.177 -266.172)" fill="url(#linear-gradient)"/>
    <g id="Grupo_12" data-name="Grupo 12" transform="translate(33.46 9.377)">
      <g id="Grupo_10" data-name="Grupo 10" transform="translate(98.248 51.054)">
        <path id="Trazado_18" data-name="Trazado 18" d="M342.641,153.334a13.169,13.169,0,0,1-.623,3.819,11.419,11.419,0,0,1-2.015,3.8,11.246,11.246,0,0,1-3.638,2.934,11.61,11.61,0,0,1-5.458,1.18H315.827a.3.3,0,0,1-.3-.3v-7.506a.3.3,0,0,1,.3-.3h15.079a3.414,3.414,0,0,0,2.688-1.065,3.818,3.818,0,0,0,.951-2.639,3.333,3.333,0,0,0-1.066-2.622,3.728,3.728,0,0,0-2.572-.951H315.532a3.415,3.415,0,0,0-2.688,1.065,3.818,3.818,0,0,0-.951,2.639v11.9a3.375,3.375,0,0,0,1.065,2.655,3.818,3.818,0,0,0,2.639.951h15.013a.3.3,0,0,1,.3.3v7.539a.3.3,0,0,1-.3.3H315.532a13.163,13.163,0,0,1-3.818-.623,11.392,11.392,0,0,1-3.8-2.016,11.232,11.232,0,0,1-2.934-3.638,11.613,11.613,0,0,1-1.18-5.458V153.334a13.179,13.179,0,0,1,.623-3.819,11.393,11.393,0,0,1,2.015-3.8,11.245,11.245,0,0,1,3.638-2.934,11.606,11.606,0,0,1,5.458-1.18h15.374a13.194,13.194,0,0,1,3.818.623,11.417,11.417,0,0,1,3.8,2.016,11.24,11.24,0,0,1,2.934,3.639A11.613,11.613,0,0,1,342.641,153.334Z" transform="translate(-303.797 -129.554)" fill="#fff"/>
        <path id="Trazado_19" data-name="Trazado 19" d="M502.314,177.034h-7.932a.3.3,0,0,1-.3-.3V157.366a7.5,7.5,0,0,0-.574-3,6.987,6.987,0,0,0-1.557-2.278,6.764,6.764,0,0,0-2.311-1.459,7.97,7.97,0,0,0-2.869-.508H472.157a.3.3,0,0,0-.3.3v26.321a.3.3,0,0,1-.3.3h-7.932a.3.3,0,0,1-.3-.3V145.828a4.168,4.168,0,0,1,.328-1.655,4.082,4.082,0,0,1,.917-1.344,4.362,4.362,0,0,1,1.377-.9,4.3,4.3,0,0,1,1.672-.328h19.209a17.176,17.176,0,0,1,3.392.361,16.186,16.186,0,0,1,3.54,1.164,17.167,17.167,0,0,1,3.344,2.032,13.615,13.615,0,0,1,2.819,2.983,14.678,14.678,0,0,1,1.95,4.049,17.263,17.263,0,0,1,.721,5.179v19.373A.3.3,0,0,1,502.314,177.034Z" transform="translate(-418.759 -129.554)" fill="#fff"/>
        <path id="Trazado_20" data-name="Trazado 20" d="M632.633,145.974H624.7a.3.3,0,0,1-.3-.3V110.834a.3.3,0,0,1,.3-.3h7.932a.3.3,0,0,1,.3.3v34.844A.3.3,0,0,1,632.633,145.974Zm-3.966-47.48a4.261,4.261,0,1,1-4.261,4.261A4.261,4.261,0,0,1,628.667,98.494Z" transform="translate(-534.82 -98.494)" fill="#fff"/>
        <g id="Grupo_9" data-name="Grupo 9" transform="translate(104.202 12.045)">
          <path id="Trazado_21" data-name="Trazado 21" d="M677.915,147.992a11.447,11.447,0,0,1,2.988-3.705,11.619,11.619,0,0,1,3.873-2.053,13.447,13.447,0,0,1,3.888-.634H704.32a11.813,11.813,0,0,1,5.558,1.2,11.445,11.445,0,0,1,3.705,2.987,11.6,11.6,0,0,1,2.052,3.872,13.419,13.419,0,0,1,.635,3.89v12.184a11.824,11.824,0,0,1-1.2,5.558A11.43,11.43,0,0,1,712.081,175a11.6,11.6,0,0,1-3.872,2.053,13.415,13.415,0,0,1-3.889.634H688.96a.3.3,0,0,1-.3-.3V169.7a.3.3,0,0,1,.3-.3h15.294a3.886,3.886,0,0,0,2.688-.968,3.436,3.436,0,0,0,1.084-2.7V153.616a3.891,3.891,0,0,0-.968-2.687,3.479,3.479,0,0,0-2.737-1.084H688.664a3.8,3.8,0,0,0-2.62.968,3.394,3.394,0,0,0-1.085,2.67,3.891,3.891,0,0,0,.968,2.688,3.478,3.478,0,0,0,2.737,1.084h15.361a.3.3,0,0,1,.3.3v7.655a.3.3,0,0,1-.3.3H688.664a11.816,11.816,0,0,1-5.558-1.2,11.457,11.457,0,0,1-3.705-2.987,11.639,11.639,0,0,1-2.052-3.873,13.4,13.4,0,0,1-.634-3.888A11.827,11.827,0,0,1,677.915,147.992Zm2.938,21.414a4.14,4.14,0,1,1-4.139,4.14A4.14,4.14,0,0,1,680.853,169.406Z" transform="translate(-676.714 -141.599)" fill="#fff"/>
        </g>
        <path id="Trazado_22" data-name="Trazado 22" d="M871.422,177.034h-7.932a.3.3,0,0,1-.3-.3V153.531a3.407,3.407,0,0,0-.885-2.541,3.6,3.6,0,0,0-2.623-.868H848.9a.3.3,0,0,0-.3.3v26.321a.3.3,0,0,1-.3.3h-7.932a.3.3,0,0,1-.3-.3V145.828a4.17,4.17,0,0,1,.327-1.655,4.086,4.086,0,0,1,.917-1.344,4.366,4.366,0,0,1,1.377-.9,4.3,4.3,0,0,1,1.672-.328h15.374a13.031,13.031,0,0,1,3.8.623,12.373,12.373,0,0,1,3.4,1.665.294.294,0,0,0,.465-.237v-1.3a.75.75,0,0,1,.751-.751h10.787a12.613,12.613,0,0,1,2.557.279,13.146,13.146,0,0,1,2.672.868,12.4,12.4,0,0,1,2.54,1.525,10.026,10.026,0,0,1,2.131,2.261,11.574,11.574,0,0,1,1.475,3.065,12.84,12.84,0,0,1,.557,3.933v23.208a.3.3,0,0,1-.3.3h-7.932a.3.3,0,0,1-.3-.3V153.531a3.526,3.526,0,0,0-.835-2.541,3.425,3.425,0,0,0-2.573-.868h-7.3a.291.291,0,0,0-.283.362,13.292,13.292,0,0,1,.335,3.047v23.208A.3.3,0,0,1,871.422,177.034Z" transform="translate(-690.233 -129.554)" fill="#fff"/>
        <path id="Trazado_23" data-name="Trazado 23" d="M1081.289,165.3a13.216,13.216,0,0,1-.623,3.819,11.415,11.415,0,0,1-2.017,3.8,11.244,11.244,0,0,1-3.638,2.934,11.607,11.607,0,0,1-5.458,1.18H1054.18a13.172,13.172,0,0,1-3.819-.623,11.372,11.372,0,0,1-3.8-2.016,11.234,11.234,0,0,1-2.935-3.638,11.614,11.614,0,0,1-1.18-5.458,13.329,13.329,0,0,1,.623-3.835,11.382,11.382,0,0,1,2.016-3.819,11.237,11.237,0,0,1,3.638-2.934,11.6,11.6,0,0,1,5.458-1.18h15.078a.3.3,0,0,1,.3.3v7.539a.3.3,0,0,1-.3.3H1054.18a3.416,3.416,0,0,0-2.689,1.065,3.819,3.819,0,0,0-.951,2.638,3.237,3.237,0,0,0,1.1,2.606,3.894,3.894,0,0,0,2.606.934h15.308a3.444,3.444,0,0,0,2.689-1.049,3.762,3.762,0,0,0,.951-2.622v-11.9a3.493,3.493,0,0,0-1.033-2.655,3.628,3.628,0,0,0-2.606-.983h-18.422a.3.3,0,0,1-.3-.3v-7.506a.3.3,0,0,1,.3-.3h18.422a13.2,13.2,0,0,1,3.819.623,11.423,11.423,0,0,1,3.8,2.016,11.254,11.254,0,0,1,2.934,3.639,11.614,11.614,0,0,1,1.18,5.458Z" transform="translate(-836.047 -129.554)" fill="#fff"/>
      </g>
    </g>
  </g>
</svg>
