<?xml version="1.0" encoding="utf-8"?>
<!-- Generator: Adobe Illustrator 24.1.3, SVG Export Plug-In . SVG Version: 6.00 Build 0)  -->
<svg version="1.1" id="Capa_1" xmlns="http://www.w3.org/2000/svg" xmlns:xlink="http://www.w3.org/1999/xlink" x="0px" y="0px"
	 viewBox="0 0 300 96" style="enable-background:new 0 0 300 96;" xml:space="preserve">
<style type="text/css">
	.st0{fill:#FFFFFF;}
	.st1{fill:#272777;}
	.st2{fill:#116ED3;}
	.st3{fill:url(#SVGID_1_);}
	.st4{fill:url(#SVGID_2_);}
	.st5{fill:url(#SVGID_3_);}
	.st6{fill:url(#SVGID_4_);}
	.st7{fill:url(#SVGID_5_);}
	.st8{fill:url(#SVGID_6_);}
	.st9{fill:url(#SVGID_7_);}
	.st10{fill:url(#SVGID_8_);}
</style>
<g>
	<g>
		<path class="st0" d="M104.18,63.46H92.93V30.05h11.25c2.88,0,5.26,0.3,7.13,0.91c1.87,0.61,3.32,1.61,4.35,3
			c1.03,1.39,1.74,3.03,2.14,4.91c0.39,1.88,0.59,4.33,0.59,7.35c0,3.01-0.18,5.51-0.54,7.49c-0.36,1.98-1.04,3.75-2.04,5.31
			c-1,1.56-2.45,2.69-4.35,3.39C109.56,63.11,107.13,63.46,104.18,63.46z M111.31,50.2c0.07-1.05,0.1-2.5,0.1-4.35
			c0-1.85-0.07-3.33-0.2-4.45c-0.13-1.11-0.44-2.13-0.93-3.05c-0.49-0.92-1.22-1.55-2.19-1.89c-0.97-0.34-2.27-0.52-3.91-0.52h-4.47
			v21.62h4.47c2.46,0,4.24-0.62,5.36-1.87C110.49,54.68,111.08,52.85,111.31,50.2z"/>
		<path class="st0" d="M138.19,38.89h6.58v24.57h-6.54v-1.38c-2.36,1.31-4.41,1.97-6.14,1.97c-3.41,0-5.7-0.94-6.88-2.83
			c-1.18-1.88-1.77-5.04-1.77-9.46V38.89h6.58v12.97c0,2.42,0.2,4.08,0.59,4.96c0.39,0.88,1.34,1.33,2.85,1.33
			c1.44,0,2.8-0.23,4.08-0.69l0.64-0.2V38.89z"/>
		<path class="st0" d="M169.69,46.56v10.22c0.07,0.79,0.2,1.34,0.39,1.65c0.2,0.31,0.61,0.53,1.23,0.66l-0.2,4.96
			c-1.67,0-3.01-0.12-4-0.34c-1-0.23-2.01-0.69-3.02-1.38c-2.36,1.15-4.77,1.72-7.22,1.72c-5.08,0-7.62-2.69-7.62-8.06
			c0-2.62,0.7-4.48,2.11-5.58c1.41-1.1,3.57-1.74,6.49-1.94l5.26-0.39v-1.52c0-1.01-0.23-1.71-0.69-2.09
			c-0.46-0.38-1.2-0.57-2.21-0.57l-9.24,0.39l-0.2-4.57c3.51-0.95,6.84-1.43,10-1.43c3.16,0,5.44,0.66,6.83,1.97
			C168.99,41.58,169.69,43.68,169.69,46.56z M158.63,53.05c-1.84,0.16-2.75,1.15-2.75,2.95c0,1.8,0.8,2.7,2.41,2.7
			c1.24,0,2.6-0.2,4.08-0.59l0.74-0.2v-5.26L158.63,53.05z"/>
		<path class="st0" d="M175.98,63.46V38.89h6.54v2.6c2.75-1.64,5.37-2.7,7.86-3.19v6.63c-2.65,0.56-4.93,1.13-6.83,1.72L182.56,47
			v16.46H175.98z"/>
		<path class="st0" d="M189.74,36.04v-6h24.57v6h-8.85v27.42h-6.78V36.04H189.74z"/>
		<path class="st0" d="M221.21,57.25c0.77,0.67,1.88,1.01,3.32,1.01c3.05,0,5.77-0.1,8.16-0.29l1.38-0.15l0.1,4.86
			c-3.77,0.92-7.17,1.38-10.22,1.38c-3.7,0-6.39-0.98-8.06-2.95s-2.51-5.16-2.51-9.58c0-8.81,3.62-13.22,10.86-13.22
			c7.14,0,10.71,3.7,10.71,11.11l-0.49,4.57h-14.45C220.04,55.49,220.44,56.58,221.21,57.25z M228.46,48.97
			c0-1.97-0.31-3.33-0.93-4.1c-0.62-0.77-1.71-1.15-3.27-1.15c-1.56,0-2.65,0.4-3.29,1.2c-0.64,0.8-0.98,2.15-1.01,4.05H228.46z"/>
		<path class="st0" d="M248.85,38.3c1.7,0,3.88,0.26,6.54,0.79l1.33,0.29l-0.2,5.21c-2.59-0.26-4.5-0.39-5.75-0.39
			c-2.26,0-3.76,0.48-4.5,1.45c-0.74,0.97-1.11,2.79-1.11,5.48c0,2.69,0.37,4.53,1.11,5.53c0.74,1,2.25,1.5,4.55,1.5l5.7-0.39
			l0.2,5.26c-3.51,0.69-6.18,1.03-8.01,1.03c-3.64,0-6.25-1.02-7.84-3.07c-1.59-2.05-2.38-5.33-2.38-9.85c0-4.52,0.82-7.79,2.46-9.8
			C242.58,39.31,245.22,38.3,248.85,38.3z"/>
		<path class="st0" d="M268.16,63.46h-6.58v-34.4h6.58v11.01c2.26-1.18,4.29-1.77,6.09-1.77c3.28,0,5.54,0.97,6.78,2.9
			c1.24,1.93,1.87,4.91,1.87,8.94v13.32h-6.58V50.29c0-2.06-0.25-3.59-0.74-4.59c-0.49-1-1.47-1.5-2.95-1.5
			c-1.28,0-2.56,0.2-3.83,0.59l-0.64,0.2V63.46z"/>
	</g>
	<g>
		<path class="st0" d="M99.46,74.18c-0.97-0.15-1.76-0.22-2.39-0.22c-0.62,0-1.12,0.17-1.48,0.5c-0.36,0.33-0.55,0.73-0.55,1.2
			c0,0.28,0.1,0.49,0.3,0.62c0.2,0.14,0.66,0.29,1.36,0.45c0.7,0.17,1.21,0.36,1.53,0.58c0.32,0.22,0.48,0.59,0.48,1.12
			c0,0.91-0.32,1.6-0.94,2.08c-0.63,0.48-1.43,0.73-2.41,0.73c-0.72,0-1.41-0.08-2.08-0.25l-0.34-0.08l0.17-0.75
			c0.96,0.17,1.76,0.25,2.4,0.25c0.65,0,1.18-0.15,1.61-0.45c0.43-0.3,0.64-0.75,0.64-1.34c0-0.33-0.11-0.56-0.33-0.69
			c-0.22-0.13-0.67-0.28-1.36-0.44c-0.69-0.16-1.19-0.35-1.5-0.58c-0.31-0.22-0.47-0.58-0.47-1.05c0-0.79,0.28-1.44,0.85-1.95
			c0.57-0.51,1.29-0.77,2.18-0.77c0.69,0,1.41,0.07,2.16,0.2l0.37,0.08L99.46,74.18z"/>
		<path class="st0" d="M107.89,73.15c1.75,0,2.62,0.86,2.62,2.58c0,1.54-0.37,2.85-1.1,3.92c-0.73,1.07-1.69,1.61-2.88,1.61
			c-1.71,0-2.56-0.82-2.56-2.47c0-1.55,0.37-2.88,1.12-3.98C105.83,73.7,106.77,73.15,107.89,73.15z M106.53,80.42
			c0.9,0,1.62-0.46,2.19-1.38c0.56-0.92,0.84-2.03,0.84-3.33c0-0.53-0.14-0.95-0.42-1.27c-0.28-0.32-0.7-0.48-1.25-0.48
			c-0.86,0-1.58,0.48-2.14,1.44c-0.56,0.96-0.84,2.09-0.84,3.39C104.91,79.88,105.45,80.42,106.53,80.42z"/>
		<path class="st0" d="M115.08,81.09l2.61-11.28h0.92L116,81.09H115.08z"/>
		<path class="st0" d="M124.24,81.25c-0.58,0-1.03-0.17-1.35-0.52c-0.32-0.34-0.48-0.79-0.48-1.33c0-0.54,0.1-1.25,0.31-2.12l0.94-4
			h0.92l-0.92,3.94c-0.2,0.84-0.3,1.48-0.3,1.91c0,0.85,0.39,1.28,1.17,1.28c0.34,0,0.73-0.16,1.17-0.48
			c0.44-0.32,0.79-0.65,1.05-0.97l0.41-0.48l1.2-5.18h0.94l-1.81,7.81h-0.91l0.33-1.51c-0.52,0.7-1.13,1.19-1.84,1.48
			C124.78,81.19,124.5,81.25,124.24,81.25z"/>
		<path class="st0" d="M135.06,79.63c0,0.53,0.29,0.8,0.86,0.8l1.25-0.09l-0.06,0.73c-0.54,0.12-1.04,0.19-1.51,0.19
			c-0.46,0-0.83-0.12-1.11-0.37c-0.28-0.25-0.41-0.58-0.41-1c0-0.42,0.09-0.98,0.27-1.69l0.95-4.08h-1.06l0.2-0.83h1.06l0.58-2.39
			h0.94l-0.59,2.39h2.33l-0.2,0.83h-2.31l-0.97,4.12C135.13,78.82,135.06,79.28,135.06,79.63z"/>
		<path class="st0" d="M141.95,81.09l1.81-7.81h0.94l-1.81,7.81H141.95z M144.17,71.47l0.3-1.25h0.94l-0.28,1.25H144.17z"/>
		<path class="st0" d="M153.05,73.15c1.75,0,2.62,0.86,2.62,2.58c0,1.54-0.37,2.85-1.1,3.92c-0.73,1.07-1.69,1.61-2.88,1.61
			c-1.71,0-2.56-0.82-2.56-2.47c0-1.55,0.37-2.88,1.12-3.98C151,73.7,151.93,73.15,153.05,73.15z M151.7,80.42
			c0.9,0,1.62-0.46,2.19-1.38c0.56-0.92,0.84-2.03,0.84-3.33c0-0.53-0.14-0.95-0.42-1.27c-0.28-0.32-0.7-0.48-1.25-0.48
			c-0.86,0-1.58,0.48-2.14,1.44c-0.56,0.96-0.84,2.09-0.84,3.39C150.07,79.88,150.61,80.42,151.7,80.42z"/>
		<path class="st0" d="M165.2,73.13c0.59,0,1.05,0.17,1.36,0.52c0.31,0.34,0.47,0.79,0.47,1.33c0,0.54-0.1,1.25-0.31,2.12l-0.94,4
			h-0.92l0.92-3.94c0.2-0.84,0.3-1.49,0.3-1.95c0-0.82-0.39-1.23-1.17-1.23c-0.34,0-0.73,0.16-1.17,0.48
			c-0.44,0.32-0.79,0.65-1.06,0.98l-0.39,0.48l-1.2,5.17h-0.94l1.81-7.81h0.91l-0.33,1.51c0.52-0.7,1.14-1.19,1.86-1.48
			C164.67,73.19,164.94,73.13,165.2,73.13z"/>
		<path class="st0" d="M177.84,74.18c-0.97-0.15-1.76-0.22-2.39-0.22s-1.12,0.17-1.48,0.5c-0.36,0.33-0.55,0.73-0.55,1.2
			c0,0.28,0.1,0.49,0.3,0.62c0.2,0.14,0.66,0.29,1.36,0.45c0.7,0.17,1.21,0.36,1.53,0.58c0.32,0.22,0.48,0.59,0.48,1.12
			c0,0.91-0.32,1.6-0.94,2.08c-0.63,0.48-1.43,0.73-2.41,0.73c-0.72,0-1.41-0.08-2.08-0.25l-0.34-0.08l0.17-0.75
			c0.96,0.17,1.76,0.25,2.4,0.25c0.65,0,1.18-0.15,1.61-0.45c0.43-0.3,0.64-0.75,0.64-1.34c0-0.33-0.11-0.56-0.33-0.69
			c-0.22-0.13-0.67-0.28-1.36-0.44c-0.69-0.16-1.19-0.35-1.5-0.58c-0.31-0.22-0.47-0.58-0.47-1.05c0-0.79,0.28-1.44,0.85-1.95
			c0.57-0.51,1.29-0.77,2.18-0.77c0.69,0,1.41,0.07,2.16,0.2l0.37,0.08L177.84,74.18z"/>
	</g>
	<g>
		<path class="st0" d="M41.86,39.47h1.62v-5.03h-5.03v5.03h1.62v13.46l-6.74-3.45v-6.93h1.62v-5.03h-5.03v5.03h1.62v8.02l8.52,4.36
			v5.91l9.43,6.49v12.03h-3.44v1.78h5.23V66.39l-9.43-6.49V39.47z M39.65,35.63h2.65v2.65h-2.65V35.63z M31.13,38.72h2.65v2.65
			h-2.65V38.72z"/>
		<path class="st0" d="M63.81,43.83h1.62l0,15.95l-9.17,5.51v-4.23l4.77-8.05v-17.6h1.62v-5.03h-5.03v5.03h1.62v17.11l-3.97,6.7
			l-6.72-4.64V43.83h1.62V38.8h-5.03v5.03h1.62v11.69l7.71,5.32v20.3h5.35v-1.78h-3.57V67.37l10.95-6.58l0-16.96h1.62V38.8h-5.03
			V43.83z M58.82,31.57h2.65v2.65h-2.65V31.57z M46.34,39.99h2.65v2.65h-2.65V39.99z M65,39.99h2.65v2.65H65V39.99z"/>
		<g>
			<path class="st0" d="M84.62,47.66c-0.97-2.78-2.97-5.02-5.62-6.3l-0.03,0.07c-0.3-10.82-9.19-19.53-20.09-19.53
				c-0.59,0-1.18,0.03-1.77,0.08c-3.84-4.6-9.43-7.23-15.43-7.23c-11.08,0-20.1,9.01-20.1,20.1c0,2.77,0.56,5.46,1.66,8l1.63-0.71
				c-1-2.31-1.51-4.76-1.51-7.29c0-10.1,8.22-18.32,18.32-18.32c5.09,0,9.87,2.08,13.32,5.75c-0.72,0.14-1.43,0.32-2.13,0.54
				l0.53,1.69c1.77-0.55,3.61-0.83,5.48-0.83c10.1,0,18.32,8.22,18.32,18.32c0,1.38-0.16,2.76-0.47,4.12l1.73,0.4
				c0.24-1.05,0.4-2.11,0.47-3.18c1.88,1.11,3.29,2.82,4.01,4.91c0.81,2.33,0.67,4.84-0.4,7.07s-2.95,3.9-5.28,4.71
				c-2.33,0.81-4.84,0.67-7.07-0.4l-0.77,1.6c1.52,0.73,3.15,1.1,4.78,1.1c1.22,0,2.45-0.21,3.64-0.62c2.78-0.97,5.02-2.97,6.3-5.62
				C85.42,53.44,85.6,50.44,84.62,47.66z"/>
			<path class="st0" d="M26.34,62.45c-5.01-0.98-8.28-5.85-7.3-10.86c0.85-4.33,4.66-7.47,9.07-7.47c0.01,0,0.03,0,0.04,0l0.01-1.77
				c-0.02,0-0.03,0-0.05,0c-5.25,0-9.8,3.74-10.81,8.9c-1.17,5.97,2.73,11.77,8.7,12.94c0.7,0.14,1.41,0.21,2.12,0.21
				c1.83,0,3.65-0.46,5.27-1.34l-0.85-1.56C30.65,62.52,28.45,62.86,26.34,62.45z"/>
		</g>
	</g>
</g>
</svg>
