<svg xmlns="http://www.w3.org/2000/svg" width="60" height="60" viewBox="0 0 60 60">
  <g id="WhatsApp" transform="translate(0 0.403)">
    <path id="Exclusión_3" data-name="Exclusión 3" d="M-3618-916.4a29.813,29.813,0,0,1-11.677-2.358,29.906,29.906,0,0,1-9.536-6.429,29.9,29.9,0,0,1-6.429-9.536A29.815,29.815,0,0,1-3648-946.4a29.815,29.815,0,0,1,2.357-11.677,29.9,29.9,0,0,1,6.429-9.536,29.9,29.9,0,0,1,9.536-6.429A29.813,29.813,0,0,1-3618-976.4a29.813,29.813,0,0,1,11.677,2.358,29.9,29.9,0,0,1,9.536,6.429,29.9,29.9,0,0,1,6.429,9.536A29.815,29.815,0,0,1-3588-946.4a29.815,29.815,0,0,1-2.357,11.677,29.9,29.9,0,0,1-6.429,9.536,29.9,29.9,0,0,1-9.536,6.429A29.813,29.813,0,0,1-3618-916.4Zm-7.549-15.915h0a16.018,16.018,0,0,0,7.548,1.895,16,16,0,0,0,15.98-15.981A16,16,0,0,0-3618-962.383a16,16,0,0,0-15.98,15.981,15.984,15.984,0,0,0,2.058,7.844l-2.032,7.254a.7.7,0,0,0,.17.672.7.7,0,0,0,.5.211.688.688,0,0,0,.167-.02l7.57-1.875Zm11.819-6.443a5.221,5.221,0,0,1-1.586-.238,24.028,24.028,0,0,1-2.338-.854,17.685,17.685,0,0,1-6.936-6.015l-.006-.008c-.032-.045-.054-.076-.067-.093l-.005-.007a7.68,7.68,0,0,1-1.67-4.183,4.437,4.437,0,0,1,1.358-3.3l.01-.01.069-.073a1.5,1.5,0,0,1,1.094-.507c.313,0,.571,0,.786.015h.129c.254,0,.525.054.8.7.115.273.284.679.461,1.105l.006.014c.342.822.729,1.754.8,1.889a.74.74,0,0,1,.035.71l-.046.093-.009.019a2.272,2.272,0,0,1-.354.564c-.067.077-.136.161-.205.244l0,0c-.139.167-.283.341-.407.462-.2.195-.422.416-.18.827a12.307,12.307,0,0,0,2.282,2.807,10.71,10.71,0,0,0,3.026,1.889c.115.049.206.088.274.122a1.023,1.023,0,0,0,.446.131.57.57,0,0,0,.442-.232c.27-.306,1.03-1.188,1.3-1.588a.567.567,0,0,1,.483-.307,1.365,1.365,0,0,1,.44.1c.379.135,2.417,1.125,2.8,1.317l.223.108a1.329,1.329,0,0,1,.563.365,3.331,3.331,0,0,1-.239,1.924,4.21,4.21,0,0,1-2.771,1.926A6.847,6.847,0,0,1-3613.729-938.76Z" transform="translate(3648 976)" fill="#fff"/>
  </g>
</svg>
